<?xml version="1.0" encoding="UTF-8" standalone="no"?>
<svg
   xmlns:dc="http://purl.org/dc/elements/1.1/"
   xmlns:cc="http://creativecommons.org/ns#"
   xmlns:rdf="http://www.w3.org/1999/02/22-rdf-syntax-ns#"
   xmlns:svg="http://www.w3.org/2000/svg"
   xmlns="http://www.w3.org/2000/svg"
   xmlns:sodipodi="http://sodipodi.sourceforge.net/DTD/sodipodi-0.dtd"
   xmlns:inkscape="http://www.inkscape.org/namespaces/inkscape"
   width="65.299164mm"
   height="20.639729mm"
   viewBox="0 0 65.299164 20.639729"
   version="1.1"
   id="svg77"
   inkscape:version="1.0.1 (c497b03c, 2020-09-10)"
   sodipodi:docname="logo-cle.svg">
  <defs
     id="defs71" />
  <sodipodi:namedview
     id="base"
     pagecolor="#ffffff"
     bordercolor="#666666"
     borderopacity="1.0"
     inkscape:pageopacity="0.0"
     inkscape:pageshadow="2"
     inkscape:zoom="0.35"
     inkscape:cx="189.11429"
     inkscape:cy="116.14707"
     inkscape:document-units="mm"
     inkscape:current-layer="layer1"
     inkscape:document-rotation="0"
     showgrid="false"
     inkscape:window-width="1252"
     inkscape:window-height="1174"
     inkscape:window-x="56"
     inkscape:window-y="23"
     inkscape:window-maximized="0"
     fit-margin-top="0"
     fit-margin-left="0"
     fit-margin-right="0"
     fit-margin-bottom="0" />
  <metadata
     id="metadata74">
    <rdf:RDF>
      <cc:Work
         rdf:about="">
        <dc:format>image/svg+xml</dc:format>
        <dc:type
           rdf:resource="http://purl.org/dc/dcmitype/StillImage" />
        <dc:title></dc:title>
      </cc:Work>
    </rdf:RDF>
  </metadata>
  <g
     inkscape:label="Layer 1"
     inkscape:groupmode="layer"
     id="layer1"
     transform="translate(-55.796844,-26.721802)">
    <path
       class="st2"
       d="m 75.058514,38.395005 h 39.925616 v 4.736952 h 2.24896 v -4.736952 h 2.54 v 4.68056 h 1.32292 v -4.708756 -2.735026 h -0.3175 -45.719996 c -0.66146,-5.018913 -4.68313,-8.909981 -9.55146,-8.909981 -5.34458,0 -9.71021,4.624168 -9.71021,10.319788 0,5.695621 4.33917,10.31979 9.71021,10.31979 4.89479,0.0282 8.94292,-3.891069 9.55146,-8.966375 z m -5.00063,2.791418 c -1.05833,1.09965 -2.64583,1.635377 -4.73604,1.635377 -2.09021,0 -3.59833,-0.507531 -4.55083,-1.522592 -0.9525,-1.015061 -1.42875,-2.396672 -1.42875,-4.116637 0,-1.719964 0.55562,-3.129772 1.64041,-4.229421 1.11125,-1.09965 2.69875,-1.635377 4.81542,-1.635377 1.05833,0 1.98438,0.140981 2.75167,0.451139 0.79375,0.281961 1.40229,0.704903 1.82562,1.212434 0.84667,1.015061 1.27,2.283887 1.27,3.862871 0,1.804553 -0.52916,3.242557 -1.5875,4.342206 z"
       id="svg_15"
       style="fill:#231013;stroke-width:0.273135"
       inkscape:export-xdpi="96"
       inkscape:export-ydpi="96" />
  </g>
</svg>
