<svg width="736" height="558" xmlns="http://www.w3.org/2000/svg">
 <style type="text/css">.st0{fill:#FFFFFF;}
	.st1{fill:#F2EDE7;}
	.st2{fill:#231013;}
	.st3{fill:#010101;stroke:#231F20;stroke-width:0.2;stroke-miterlimit:10;}
	.st4{stroke:#000000;stroke-width:0.2;stroke-miterlimit:10;}
	.st5{fill:#FFFFFF;stroke:#FFFFFF;stroke-width:0.2;stroke-miterlimit:10;}</style>

 <g>
  <title>background</title>
  <rect x="-1" y="-1" width="738" height="560" id="canvas_background" fill="none"/>
 </g>
 <g>
  <title>Layer 1</title>
  <rect x="3" y="2.99999" class="st1" width="733.00001" height="555.00001" id="svg_5" stroke="null"/>
  <g id="svg_6">
   <g id="svg_7">
    <path class="st2" d="m3,5.39999c14.4,-1 27.1,-1.5 38.1,-1.5c30.9,0 46.3,10.9 46.3,32.7c0,10.1 -2.6,18.9 -7.8,26.5c-2.7,4.1 -7,7.4 -12.7,9.8c-5.7,2.4 -12.6,3.6 -20.7,3.6l-27.6,0l0,58l-15.6,0l0,-129.1zm38.3,0.3c-7.2,0 -14.8,0.4 -22.8,1.3l0,67.5l27.6,0c17.5,-0.7 26.3,-13.3 26.3,-37.7c0,-9.9 -2.6,-17.6 -7.8,-23c-5.2,-5.4 -13,-8.1 -23.3,-8.1z" id="svg_8"/>
    <path class="st2" d="m100.3,134.49999l-2.3,0l55.8,-130.6l2.1,-0.9l47,131.5l-15.9,0l-14.6,-41.1l-54.4,0l-17.7,41.1zm47.7,-110.5l-29.3,67.5l53.2,0l-23.9,-67.5z" id="svg_9"/>
    <path class="st2" d="m331.2,3.89999l2.4,0l0,74.6c0,19.5 -3.8,33.9 -11.6,43c-7.7,9.1 -17.8,13.7 -30.2,13.7c-7.8,0 -14.5,-0.7 -20,-2.1c-5.5,-1.4 -10.6,-4.1 -15.5,-7.9c-10,-7.7 -14.9,-23.3 -14.9,-46.6l0,-74.7l15.6,0l0,74.4c0,22.6 3.4,37.7 10.3,45.3c3.5,3.7 7.1,6.3 10.9,7.6c3.8,1.4 8.4,2.1 13.7,2.1c11.9,0 21.5,-4.4 28.6,-13.2c7.1,-8.8 10.7,-22.7 10.7,-41.9l0,-74.3z" id="svg_10"/>
    <path class="st2" d="m447.8,134.49999l-70.9,0l0,-130.6l15.5,0l0,128.7l55.4,0l0,1.9z" id="svg_11"/>
    <path class="st2" d="m487.9,134.49999l-2.4,0l16.2,-130.6l6.2,0l39.2,120.7l39,-120.7l6.2,0l16.2,130.6l-15.5,0l-12.9,-104.5l-33.8,104.5l-11.7,0l-34.2,-103.2l-12.5,103.2z" id="svg_12"/>
    <path class="st2" d="m728.8,3.89999l0,1.9l-58.8,0l0,56l54.5,0l0,1.9l-54.5,0l0,69l62.9,0l0,1.9l-78.4,0l0,-130.7l74.3,0z" id="svg_13"/>
   </g>
   <g id="svg_14">
    <path class="st2" d="m317.4,366.29999l150.9,0l0,16.8l8.5,0l0,-16.8l9.6,0l0,16.6l5,0l0,-16.7l0,-9.7l-1.2,0l-172.8,0c-2.5,-17.8 -17.7,-31.6 -36.1,-31.6c-20.2,0 -36.7,16.4 -36.7,36.6c0,20.2 16.4,36.6 36.7,36.6c18.5,0.1 33.8,-13.8 36.1,-31.8zm-18.9,9.9c-4,3.9 -10,5.8 -17.9,5.8s-13.6,-1.8 -17.2,-5.4c-3.6,-3.6 -5.4,-8.5 -5.4,-14.6c0,-6.1 2.1,-11.1 6.2,-15c4.2,-3.9 10.2,-5.8 18.2,-5.8c4,0 7.5,0.5 10.4,1.6c3,1 5.3,2.5 6.9,4.3c3.2,3.6 4.8,8.1 4.8,13.7c0,6.4 -2,11.5 -6,15.4z" id="svg_15"/>
   </g>
   <g id="svg_16">
    <g id="svg_17">
     <path class="st3" d="m110.2,530.89999l-22,0l0,-40.5l4.8,0l0,39.9l17.2,0l0,0.6z" id="svg_18"/>
     <path class="st3" d="m120.8,516.79999c0,4.8 0.8,8.3 2.5,10.5c1.7,2.2 3.9,3.4 6.6,3.4c3.9,0 7.3,-0.6 10.3,-1.7l0.2,0.4c-3.1,1.2 -6.6,1.8 -10.4,1.8s-7,-1.2 -9.5,-3.5c-2.4,-2.3 -3.6,-5.9 -3.6,-10.7c0,-4.8 1.3,-8.6 3.8,-11.2c2.5,-2.7 5.8,-4 9.7,-4c3.2,0 5.8,0.9 8,2.8s3.2,4.7 3.2,8.4c0,0.2 0,0.4 0,0.6l-20.6,0c-0.1,1 -0.2,2.1 -0.2,3.2zm14.8,-11.9c-1.4,-1.8 -3.2,-2.7 -5.4,-2.7s-4.2,1 -5.9,2.9c-1.7,1.9 -2.8,4.6 -3.3,8l16.7,0c0,-3.7 -0.7,-6.5 -2.1,-8.2z" id="svg_19"/>
     <path class="st3" d="m166.5,503.99999c-0.6,-0.5 -1.6,-0.9 -3,-1.3c-1.4,-0.3 -2.4,-0.5 -3.1,-0.5s-1.1,0 -1.2,0c-2.1,0 -3.6,0.6 -4.5,1.6s-1.4,2.2 -1.4,3.4c0,1.3 0.4,2.3 1.2,3.2s1.8,1.5 3,2s2.5,1 3.9,1.6s2.7,1.2 3.9,1.9c1.2,0.6 2.2,1.6 3,2.8c0.8,1.2 1.2,2.7 1.2,4.5c0,1.8 -0.6,3.4 -1.9,4.6c-1.3,1.3 -2.7,2.1 -4.3,2.5s-3.2,0.6 -5.1,0.6c-3.9,0 -6.9,-0.9 -8.9,-2.6l0.3,-0.3c0.8,0.7 1.9,1.3 3.4,1.8c1.5,0.5 3,0.7 4.4,0.7c2.3,0 4.2,-0.6 5.6,-1.9c1.5,-1.3 2.2,-2.8 2.2,-4.7c0,-1.9 -0.6,-3.4 -1.7,-4.5c-1.1,-1.1 -2.5,-2 -4.1,-2.7s-3.2,-1.3 -4.8,-1.9c-1.6,-0.6 -3,-1.5 -4.1,-2.7c-1.1,-1.1 -1.7,-2.5 -1.7,-4c0,-1.5 0.3,-2.7 1,-3.7c0.7,-0.9 1.6,-1.6 2.8,-2c2,-0.7 3.9,-1 5.9,-1c3.3,0 5.9,0.6 7.8,1.9l0.2,0.7z" id="svg_20"/>
     <path class="st3" d="m212.5,502.19999c-2.7,0 -5,1.3 -6.9,3.9c-1.8,2.6 -2.7,6.2 -2.7,10.9c0,4.6 0.8,8.1 2.5,10.3c1.7,2.2 3.9,3.4 6.6,3.4c3.4,0 6.5,-0.6 9.1,-1.7l0.2,0.4c-2.7,1.2 -5.9,1.8 -9.6,1.8c-3.7,0 -6.7,-1.2 -9.1,-3.5c-2.4,-2.3 -3.6,-5.9 -3.6,-10.7c0,-4.8 1.3,-8.6 3.8,-11.2c2.5,-2.7 5.8,-4 9.7,-4c2.2,0 4.2,0.5 6.1,1.5c1.9,1 3.2,2.5 4.1,4.6l-3.7,0c-0.6,-1.9 -1.5,-3.3 -2.6,-4.2c-1.2,-1 -2.5,-1.5 -3.9,-1.5z" id="svg_21"/>
     <path class="st3" d="m238,530.89999c-3.4,0 -5.5,-0.9 -6.4,-2.7c-0.2,-0.4 -0.3,-0.7 -0.3,-1l0,-39.6l4.1,0l0,39.2c0,1.1 0.2,2 0.7,2.6c0.4,0.6 0.9,0.9 1.4,1l0.6,0.1l1.8,0l0,0.5l-1.9,0l0,-0.1z" id="svg_22"/>
     <path class="st3" d="m249,516.79999c0,4.8 0.8,8.3 2.5,10.5c1.7,2.2 3.9,3.4 6.6,3.4c3.9,0 7.3,-0.6 10.3,-1.7l0.2,0.4c-3.1,1.2 -6.6,1.8 -10.4,1.8s-7,-1.2 -9.5,-3.5c-2.4,-2.3 -3.6,-5.9 -3.6,-10.7c0,-4.8 1.3,-8.6 3.8,-11.2c2.5,-2.7 5.8,-4 9.7,-4c3.2,0 5.8,0.9 8,2.8s3.2,4.7 3.2,8.4c0,0.2 0,0.4 0,0.6l-20.7,0c-0.1,1 -0.1,2.1 -0.1,3.2zm14.7,-11.9c-1.4,-1.8 -3.2,-2.7 -5.4,-2.7s-4.2,1 -5.9,2.9c-1.7,1.9 -2.8,4.6 -3.3,8l16.7,0c0,-3.7 -0.7,-6.5 -2.1,-8.2zm-3.2,-15l4.2,-0.1l-6.1,8.3l-0.8,0l2.7,-8.2z" id="svg_23"/>
     <path class="st3" d="m294.6,503.99999c-0.6,-0.5 -1.6,-0.9 -3,-1.3c-1.4,-0.3 -2.4,-0.5 -3.1,-0.5s-1.1,0 -1.2,0c-2.1,0 -3.6,0.6 -4.5,1.6s-1.4,2.2 -1.4,3.4c0,1.3 0.4,2.3 1.2,3.2s1.8,1.5 3,2s2.5,1 3.9,1.6s2.7,1.2 3.9,1.9c1.2,0.6 2.2,1.6 3,2.8c0.8,1.2 1.2,2.7 1.2,4.5c0,1.8 -0.6,3.4 -1.9,4.6c-1.3,1.3 -2.7,2.1 -4.3,2.5s-3.2,0.6 -5.1,0.6c-3.9,0 -6.9,-0.9 -8.9,-2.6l0.3,-0.3c0.8,0.7 1.9,1.3 3.4,1.8c1.5,0.5 3,0.7 4.4,0.7c2.3,0 4.2,-0.6 5.6,-1.9c1.5,-1.3 2.2,-2.8 2.2,-4.7c0,-1.9 -0.6,-3.4 -1.7,-4.5c-1.1,-1.1 -2.5,-2 -4.1,-2.7s-3.2,-1.3 -4.8,-1.9c-1.6,-0.6 -3,-1.5 -4.1,-2.7c-1.1,-1.1 -1.7,-2.5 -1.7,-4c0,-1.5 0.3,-2.7 1,-3.7c0.7,-0.9 1.6,-1.6 2.8,-2c2,-0.7 3.9,-1 5.9,-1c3.3,0 5.9,0.6 7.8,1.9l0.2,0.7z" id="svg_24"/>
     <path class="st3" d="m327.1,517.49999c0,-5 1.2,-8.9 3.6,-11.6c2.4,-2.7 6.1,-4.1 10.9,-4.1c2.3,0 4.6,0.6 6.9,1.7l0,-15.9l4.1,0l0,39.2c0,1.1 0.2,2 0.7,2.6c0.4,0.6 0.9,0.9 1.4,1l0.6,0.1l1.8,0l0,0.5l-3.5,0c-1.6,0 -2.8,-0.3 -3.6,-1c-0.8,-0.7 -1.3,-1.4 -1.3,-2.1l-0.1,-1l0,-1c-0.7,1.4 -1.9,2.5 -3.6,3.6c-1.7,1 -3.7,1.6 -6,1.6c-8,-0.3 -11.9,-4.8 -11.9,-13.6zm11.8,13.1c2.6,0 4.8,-0.7 6.7,-2.1s2.8,-2.8 3,-4.1l0,-20.4c-2.7,-1.2 -5.1,-1.8 -7.1,-1.8c-3.4,0 -6,1.3 -7.8,4c-1.7,2.7 -2.6,6.4 -2.6,11.3c0,8.7 2.6,13.1 7.8,13.1z" id="svg_25"/>
     <path class="st3" d="m369.6,524.19999c0,3 0.8,5 2.4,5.8c0.8,0.4 1.8,0.6 3,0.6c2.4,0 4.6,-0.9 6.5,-2.8c1.9,-1.9 2.9,-3.6 3.1,-5.2l0,-20.8l4.1,0l0,24.8c0,1.1 0.2,2 0.7,2.6c0.4,0.6 0.9,0.9 1.4,1l0.6,0.1l1.8,0l0,0.5l-3.5,0c-1.6,0 -2.8,-0.3 -3.6,-1c-0.8,-0.7 -1.3,-1.4 -1.3,-2.1l-0.1,-1l0,-2.5c-0.7,1.7 -1.9,3.2 -3.7,4.7s-3.7,2.2 -5.8,2.2c-2.1,0 -3.8,-0.2 -5.2,-0.6s-2.3,-1 -2.9,-1.7c-1,-1.2 -1.5,-2.7 -1.5,-4.6l0,-22.2l4.1,0l0,22.2l-0.1,0z" id="svg_26"/>
     <path class="st3" d="m420.9,487.59999l4.1,0l0,21.6c0.7,-1.8 1.9,-3.5 3.6,-5s3.8,-2.4 6,-2.4c7.8,0 11.7,4.6 11.7,13.8c0,10.4 -5.1,15.6 -15.2,15.6c-3,0 -6.4,-0.5 -10.3,-1.4l0,-42.2l0.1,0zm13.6,14.6c-2.4,0 -4.6,1 -6.5,3.1c-1.9,2.1 -3,3.9 -3.1,5.6l0,18.5c2.4,0.9 4.4,1.3 6.2,1.3c7.4,0 11.2,-5.1 11.2,-15.2c0,-8.9 -2.6,-13.3 -7.8,-13.3z" id="svg_27"/>
     <path class="st3" d="m468.5,531.09999c-4.1,0 -7.4,-1.2 -9.9,-3.5c-2.5,-2.3 -3.8,-5.9 -3.8,-10.7c0,-4.8 1.3,-8.6 4,-11.2c2.6,-2.7 6,-4 10.1,-4c4.1,0 7.4,1.2 9.9,3.5c2.5,2.3 3.8,5.9 3.8,10.7s-1.3,8.6 -4,11.2c-2.6,2.7 -6,4 -10.1,4zm0.4,-28.9c-2.9,0 -5.4,1.3 -7.3,3.9c-1.9,2.6 -2.9,6.2 -2.9,10.9c0,4.6 0.9,8.1 2.7,10.3c1.8,2.2 4.1,3.4 7.1,3.4c2.9,0 5.4,-1.3 7.3,-3.9c1.9,-2.6 2.9,-6.2 2.9,-10.9c0,-4.6 -0.9,-8.1 -2.7,-10.3c-1.8,-2.3 -4.2,-3.4 -7.1,-3.4z" id="svg_28"/>
     <path class="st3" d="m513.9,530.89999c-1.6,0 -2.8,-0.3 -3.6,-1c-0.8,-0.7 -1.3,-1.4 -1.3,-2.1l-0.1,-1l0,-18.2c0,-3 -0.8,-5 -2.4,-5.8c-0.8,-0.4 -1.8,-0.6 -3,-0.6c-2.5,0 -4.7,1 -6.7,2.9c-2,1.9 -3,3.7 -3,5.2l0,20.6l-4.1,0l0,-28.9l4.1,0l0,6.6c0.7,-1.7 1.9,-3.2 3.6,-4.7c1.8,-1.4 3.7,-2.2 5.8,-2.2c2.1,0 3.8,0.2 5.2,0.6c1.3,0.4 2.3,1 2.9,1.7c1,1.2 1.4,2.7 1.4,4.6l0,18.1c0,1.1 0.2,2 0.7,2.6c0.4,0.6 0.9,0.9 1.4,1l0.6,0.1l1.8,0l0,0.5l-3.3,0z" id="svg_29"/>
     <path class="st3" d="m548.4,530.89999c-1.6,0 -2.8,-0.3 -3.6,-1c-0.8,-0.7 -1.3,-1.4 -1.3,-2.1l-0.1,-1l0,-18.2c0,-3 -0.8,-5 -2.4,-5.8c-0.8,-0.4 -1.8,-0.6 -3,-0.6c-2.4,0 -4.5,1 -6.5,2.9c-1.9,1.9 -2.9,3.7 -2.9,5.2l0,20.6l-4.1,0l0,-43.3l4.1,0l0,21c0.6,-1.7 1.8,-3.2 3.5,-4.7c1.7,-1.4 3.7,-2.2 5.8,-2.2c3.7,0 6.2,0.6 7.5,1.9c1.3,1.3 1.9,3 1.9,5l0,18.1c0,1.1 0.2,2 0.7,2.6c0.4,0.6 0.9,0.9 1.3,1l0.7,0.1l1.8,0l0,0.5l-3.4,0z" id="svg_30"/>
     <path class="st3" d="m562.9,516.79999c0,4.8 0.8,8.3 2.5,10.5c1.7,2.2 3.9,3.4 6.6,3.4c3.9,0 7.3,-0.6 10.3,-1.7l0.2,0.4c-3.1,1.2 -6.6,1.8 -10.4,1.8s-7,-1.2 -9.5,-3.5c-2.4,-2.3 -3.6,-5.9 -3.6,-10.7c0,-4.8 1.3,-8.6 3.8,-11.2c2.5,-2.7 5.8,-4 9.7,-4c3.2,0 5.8,0.9 8,2.8s3.2,4.7 3.2,8.4c0,0.2 0,0.4 0,0.6l-20.7,0c-0.1,1 -0.1,2.1 -0.1,3.2zm14.7,-11.9c-1.4,-1.8 -3.2,-2.7 -5.4,-2.7s-4.2,1 -5.9,2.9c-1.7,1.9 -2.8,4.6 -3.3,8l16.7,0c0,-3.7 -0.7,-6.5 -2.1,-8.2z" id="svg_31"/>
     <path class="st3" d="m595.7,524.19999c0,3 0.8,5 2.4,5.8c0.8,0.4 1.8,0.6 3,0.6c2.4,0 4.6,-0.9 6.5,-2.8c1.9,-1.9 2.9,-3.6 3.1,-5.2l0,-20.8l4.1,0l0,24.8c0,1.1 0.2,2 0.7,2.6c0.4,0.6 0.9,0.9 1.4,1l0.6,0.1l1.8,0l0,0.5l-3.5,0c-1.6,0 -2.8,-0.3 -3.6,-1c-0.8,-0.7 -1.3,-1.4 -1.3,-2.1l-0.1,-1l0,-2.5c-0.7,1.7 -1.9,3.2 -3.7,4.7s-3.7,2.2 -5.8,2.2c-2.1,0 -3.8,-0.2 -5.2,-0.6s-2.3,-1 -2.9,-1.7c-1,-1.2 -1.5,-2.7 -1.5,-4.6l0,-22.2l4.1,0l0,22.2l-0.1,0z" id="svg_32"/>
     <path class="st3" d="m637,504.49999l0,-1.2c-1.7,0.7 -3.3,2.1 -4.7,4.2c-1.4,2.1 -2.2,4.1 -2.3,5.9l0,17.5l-4.1,0l0,-28.9l4.1,0l0,9.2c0.6,-2.2 1.8,-4.3 3.5,-6.3c1.7,-2 3.7,-3 5.9,-3.1l0.2,0c0.8,0 1.4,0.3 1.9,0.8s0.8,1.2 0.8,1.9c0,0.8 -0.3,1.4 -0.8,1.9c-0.5,0.5 -1.2,0.8 -1.9,0.8c-0.8,0 -1.4,-0.3 -1.9,-0.8c-0.5,-0.5 -0.7,-1.2 -0.7,-1.9z" id="svg_33"/>
    </g>
   </g>
   <g id="svg_34">
    <path class="st2" d="m225.7,202.69999l0,-1l18,0l0,1l-5,0l0,68.9l5,0l0,1l-18,0l0,-1l4.7,0l0,-68.9l-4.7,0z" id="svg_35"/>
    <path class="st2" d="m269.6,272.69999l-1.3,0l8.8,-71l3.3,0l21.3,65.6l21.2,-65.6l3.3,0l8.8,71l-8.4,0l-7,-56.8l-18.3,56.8l-6.4,0l-18.5,-56.1l-6.8,56.1z" id="svg_36"/>
    <path class="st2" d="m360.9,272.69999l-1.3,0l8.8,-71l3.4,0l21.3,65.6l21.2,-65.6l3.4,0l8.8,71l-8.5,0l-7,-56.8l-18.3,56.8l-6.4,0l-18.5,-56.1l-6.9,56.1z" id="svg_37"/>
    <path class="st2" d="m447.4,238.89999c0,-12.3 3,-21.6 9,-28c6,-6.4 13.7,-9.6 23.1,-9.6c9.4,0 16.9,2.8 22.4,8.3c5.6,5.6 8.4,14.4 8.4,26.6s-3,21.4 -8.9,27.6c-5.9,6.2 -13.9,9.3 -23.8,9.3c-8.6,0 -15.6,-2.5 -21.1,-7.4c-2.8,-2.6 -5,-6.1 -6.6,-10.7c-1.7,-4.6 -2.5,-9.9 -2.5,-16.1zm31.7,-36.6c-6.8,0 -12.4,3 -16.8,9.1c-4.3,6.1 -6.5,15 -6.5,26.8c0,11.8 2.1,20.3 6.2,25.7c4.1,5.4 9.6,8.1 16.5,8.1c6.9,0 12.5,-3.1 16.8,-9.2s6.5,-15 6.5,-26.7c0,-11.7 -2.1,-20.2 -6.2,-25.7c-4.2,-5.3 -9.7,-8.1 -16.5,-8.1z" id="svg_38"/>
   </g>
  </g>
 </g>
</svg>