<?xml version="1.0" encoding="utf-8"?>
<!-- Generator: Adobe Illustrator 21.0.0, SVG Export Plug-In . SVG Version: 6.00 Build 0)  -->
<svg version="1.1" id="Layer_1" xmlns="http://www.w3.org/2000/svg" xmlns:xlink="http://www.w3.org/1999/xlink" x="0px" y="0px"
	 viewBox="0 0 1000 1000" style="enable-background:new 0 0 1000 1000;" xml:space="preserve">
<style type="text/css">
	.st0{fill:#FFFFFF;}
	.st1{fill:#F2EDE7;}
	.st2{fill:#231013;}
	.st3{fill:#010101;stroke:#231F20;stroke-width:0.2;stroke-miterlimit:10;}
	.st4{stroke:#000000;stroke-width:0.2;stroke-miterlimit:10;}
	.st5{fill:#FFFFFF;stroke:#FFFFFF;stroke-width:0.2;stroke-miterlimit:10;}
</style>
<rect x="-2.6" y="1092.4" class="st0" width="1016" height="1022"/>
<rect x="-1123" y="1092.4" class="st0" width="1016" height="1022"/>
<rect x="-9.8" y="2198.2" width="1016" height="1022"/>
<rect x="-1130.2" y="2198.2" width="1016" height="1022"/>
<rect x="-9" y="-9" class="st1" width="1016" height="1022"/>
<g>
	<g>
		<path class="st2" d="M141,243.5c14.4-1,27.1-1.5,38.1-1.5c30.9,0,46.3,10.9,46.3,32.7c0,10.1-2.6,18.9-7.8,26.5
			c-2.7,4.1-7,7.4-12.7,9.8c-5.7,2.4-12.6,3.6-20.7,3.6h-27.6v58H141V243.5z M179.3,243.8c-7.2,0-14.8,0.4-22.8,1.3v67.5h27.6
			c17.5-0.7,26.3-13.3,26.3-37.7c0-9.9-2.6-17.6-7.8-23C197.4,246.5,189.6,243.8,179.3,243.8z"/>
		<path class="st2" d="M238.3,372.6H236L291.8,242l2.1-0.9l47,131.5H325l-14.6-41.1H256L238.3,372.6z M286,262.1l-29.3,67.5h53.2
			L286,262.1z"/>
		<path class="st2" d="M469.2,242h2.4v74.6c0,19.5-3.8,33.9-11.6,43c-7.7,9.1-17.8,13.7-30.2,13.7c-7.8,0-14.5-0.7-20-2.1
			c-5.5-1.4-10.6-4.1-15.5-7.9c-10-7.7-14.9-23.3-14.9-46.6V242H395v74.4c0,22.6,3.4,37.7,10.3,45.3c3.5,3.7,7.1,6.3,10.9,7.6
			c3.8,1.4,8.4,2.1,13.7,2.1c11.9,0,21.5-4.4,28.6-13.2c7.1-8.8,10.7-22.7,10.7-41.9V242z"/>
		<path class="st2" d="M585.8,372.6h-70.9V242h15.5v128.7h55.4V372.6z"/>
		<path class="st2" d="M625.9,372.6h-2.4L639.7,242h6.2l39.2,120.7l39-120.7h6.2l16.2,130.6H731l-12.9-104.5l-33.8,104.5h-11.7
			l-34.2-103.2L625.9,372.6z"/>
		<path class="st2" d="M866.8,242v1.9H808v56h54.5v1.9H808v69h62.9v1.9h-78.4V242H866.8z"/>
	</g>
	<g>
		<path class="st2" d="M455.4,604.4h150.9v16.8h8.5v-16.8h9.6V621h5v-16.7v-9.7h-1.2H455.4c-2.5-17.8-17.7-31.6-36.1-31.6
			c-20.2,0-36.7,16.4-36.7,36.6c0,20.2,16.4,36.6,36.7,36.6C437.8,636.3,453.1,622.4,455.4,604.4z M436.5,614.3
			c-4,3.9-10,5.8-17.9,5.8s-13.6-1.8-17.2-5.4c-3.6-3.6-5.4-8.5-5.4-14.6c0-6.1,2.1-11.1,6.2-15c4.2-3.9,10.2-5.8,18.2-5.8
			c4,0,7.5,0.5,10.4,1.6c3,1,5.3,2.5,6.9,4.3c3.2,3.6,4.8,8.1,4.8,13.7C442.5,605.3,440.5,610.4,436.5,614.3z"/>
	</g>
	<g>
		<g>
			<path class="st3" d="M248.2,769h-22v-40.5h4.8v39.9h17.2V769z"/>
			<path class="st3" d="M258.8,754.9c0,4.8,0.8,8.3,2.5,10.5c1.7,2.2,3.9,3.4,6.6,3.4c3.9,0,7.3-0.6,10.3-1.7l0.2,0.4
				c-3.1,1.2-6.6,1.8-10.4,1.8s-7-1.2-9.5-3.5c-2.4-2.3-3.6-5.9-3.6-10.7c0-4.8,1.3-8.6,3.8-11.2c2.5-2.7,5.8-4,9.7-4
				c3.2,0,5.8,0.9,8,2.8s3.2,4.7,3.2,8.4c0,0.2,0,0.4,0,0.6H259C258.9,752.7,258.8,753.8,258.8,754.9z M273.6,743
				c-1.4-1.8-3.2-2.7-5.4-2.7s-4.2,1-5.9,2.9c-1.7,1.9-2.8,4.6-3.3,8h16.7C275.7,747.5,275,744.7,273.6,743z"/>
			<path class="st3" d="M304.5,742.1c-0.6-0.5-1.6-0.9-3-1.3c-1.4-0.3-2.4-0.5-3.1-0.5s-1.1,0-1.2,0c-2.1,0-3.6,0.6-4.5,1.6
				s-1.4,2.2-1.4,3.4c0,1.3,0.4,2.3,1.2,3.2s1.8,1.5,3,2s2.5,1,3.9,1.6s2.7,1.2,3.9,1.9c1.2,0.6,2.2,1.6,3,2.8
				c0.8,1.2,1.2,2.7,1.2,4.5c0,1.8-0.6,3.4-1.9,4.6c-1.3,1.3-2.7,2.1-4.3,2.5s-3.2,0.6-5.1,0.6c-3.9,0-6.9-0.9-8.9-2.6l0.3-0.3
				c0.8,0.7,1.9,1.3,3.4,1.8c1.5,0.5,3,0.7,4.4,0.7c2.3,0,4.2-0.6,5.6-1.9c1.5-1.3,2.2-2.8,2.2-4.7c0-1.9-0.6-3.4-1.7-4.5
				c-1.1-1.1-2.5-2-4.1-2.7s-3.2-1.3-4.8-1.9c-1.6-0.6-3-1.5-4.1-2.7c-1.1-1.1-1.7-2.5-1.7-4c0-1.5,0.3-2.7,1-3.7
				c0.7-0.9,1.6-1.6,2.8-2c2-0.7,3.9-1,5.9-1c3.3,0,5.9,0.6,7.8,1.9L304.5,742.1z"/>
			<path class="st3" d="M350.5,740.3c-2.7,0-5,1.3-6.9,3.9c-1.8,2.6-2.7,6.2-2.7,10.9c0,4.6,0.8,8.1,2.5,10.3
				c1.7,2.2,3.9,3.4,6.6,3.4c3.4,0,6.5-0.6,9.1-1.7l0.2,0.4c-2.7,1.2-5.9,1.8-9.6,1.8c-3.7,0-6.7-1.2-9.1-3.5
				c-2.4-2.3-3.6-5.9-3.6-10.7c0-4.8,1.3-8.6,3.8-11.2c2.5-2.7,5.8-4,9.7-4c2.2,0,4.2,0.5,6.1,1.5c1.9,1,3.2,2.5,4.1,4.6H357
				c-0.6-1.9-1.5-3.3-2.6-4.2C353.2,740.8,351.9,740.3,350.5,740.3z"/>
			<path class="st3" d="M376,769c-3.4,0-5.5-0.9-6.4-2.7c-0.2-0.4-0.3-0.7-0.3-1v-39.6h4.1v39.2c0,1.1,0.2,2,0.7,2.6
				c0.4,0.6,0.9,0.9,1.4,1l0.6,0.1h1.8v0.5H376z"/>
			<path class="st3" d="M387,754.9c0,4.8,0.8,8.3,2.5,10.5c1.7,2.2,3.9,3.4,6.6,3.4c3.9,0,7.3-0.6,10.3-1.7l0.2,0.4
				c-3.1,1.2-6.6,1.8-10.4,1.8s-7-1.2-9.5-3.5c-2.4-2.3-3.6-5.9-3.6-10.7c0-4.8,1.3-8.6,3.8-11.2c2.5-2.7,5.8-4,9.7-4
				c3.2,0,5.8,0.9,8,2.8s3.2,4.7,3.2,8.4c0,0.2,0,0.4,0,0.6h-20.7C387,752.7,387,753.8,387,754.9z M401.7,743
				c-1.4-1.8-3.2-2.7-5.4-2.7s-4.2,1-5.9,2.9c-1.7,1.9-2.8,4.6-3.3,8h16.7C403.8,747.5,403.1,744.7,401.7,743z M398.5,728l4.2-0.1
				l-6.1,8.3h-0.8L398.5,728z"/>
			<path class="st3" d="M432.6,742.1c-0.6-0.5-1.6-0.9-3-1.3c-1.4-0.3-2.4-0.5-3.1-0.5s-1.1,0-1.2,0c-2.1,0-3.6,0.6-4.5,1.6
				s-1.4,2.2-1.4,3.4c0,1.3,0.4,2.3,1.2,3.2s1.8,1.5,3,2s2.5,1,3.9,1.6s2.7,1.2,3.9,1.9c1.2,0.6,2.2,1.6,3,2.8
				c0.8,1.2,1.2,2.7,1.2,4.5c0,1.8-0.6,3.4-1.9,4.6c-1.3,1.3-2.7,2.1-4.3,2.5s-3.2,0.6-5.1,0.6c-3.9,0-6.9-0.9-8.9-2.6l0.3-0.3
				c0.8,0.7,1.9,1.3,3.4,1.8c1.5,0.5,3,0.7,4.4,0.7c2.3,0,4.2-0.6,5.6-1.9c1.5-1.3,2.2-2.8,2.2-4.7c0-1.9-0.6-3.4-1.7-4.5
				c-1.1-1.1-2.5-2-4.1-2.7s-3.2-1.3-4.8-1.9c-1.6-0.6-3-1.5-4.1-2.7c-1.1-1.1-1.7-2.5-1.7-4c0-1.5,0.3-2.7,1-3.7
				c0.7-0.9,1.6-1.6,2.8-2c2-0.7,3.9-1,5.9-1c3.3,0,5.9,0.6,7.8,1.9L432.6,742.1z"/>
			<path class="st3" d="M465.1,755.6c0-5,1.2-8.9,3.6-11.6c2.4-2.7,6.1-4.1,10.9-4.1c2.3,0,4.6,0.6,6.9,1.7v-15.9h4.1v39.2
				c0,1.1,0.2,2,0.7,2.6c0.4,0.6,0.9,0.9,1.4,1l0.6,0.1h1.8v0.5h-3.5c-1.6,0-2.8-0.3-3.6-1c-0.8-0.7-1.3-1.4-1.3-2.1l-0.1-1V764
				c-0.7,1.4-1.9,2.5-3.6,3.6c-1.7,1-3.7,1.6-6,1.6C469,768.9,465.1,764.4,465.1,755.6z M476.9,768.7c2.6,0,4.8-0.7,6.7-2.1
				s2.8-2.8,3-4.1v-20.4c-2.7-1.2-5.1-1.8-7.1-1.8c-3.4,0-6,1.3-7.8,4c-1.7,2.7-2.6,6.4-2.6,11.3
				C469.1,764.3,471.7,768.7,476.9,768.7z"/>
			<path class="st3" d="M507.6,762.3c0,3,0.8,5,2.4,5.8c0.8,0.4,1.8,0.6,3,0.6c2.4,0,4.6-0.9,6.5-2.8c1.9-1.9,2.9-3.6,3.1-5.2v-20.8
				h4.1v24.8c0,1.1,0.2,2,0.7,2.6c0.4,0.6,0.9,0.9,1.4,1l0.6,0.1h1.8v0.5h-3.5c-1.6,0-2.8-0.3-3.6-1c-0.8-0.7-1.3-1.4-1.3-2.1
				l-0.1-1v-2.5c-0.7,1.7-1.9,3.2-3.7,4.7s-3.7,2.2-5.8,2.2c-2.1,0-3.8-0.2-5.2-0.6s-2.3-1-2.9-1.7c-1-1.2-1.5-2.7-1.5-4.6v-22.2
				h4.1V762.3z"/>
			<path class="st3" d="M558.9,725.7h4.1v21.6c0.7-1.8,1.9-3.5,3.6-5s3.8-2.4,6-2.4c7.8,0,11.7,4.6,11.7,13.8
				c0,10.4-5.1,15.6-15.2,15.6c-3,0-6.4-0.5-10.3-1.4V725.7z M572.5,740.3c-2.4,0-4.6,1-6.5,3.1c-1.9,2.1-3,3.9-3.1,5.6v18.5
				c2.4,0.9,4.4,1.3,6.2,1.3c7.4,0,11.2-5.1,11.2-15.2C580.3,744.7,577.7,740.3,572.5,740.3z"/>
			<path class="st3" d="M606.5,769.2c-4.1,0-7.4-1.2-9.9-3.5c-2.5-2.3-3.8-5.9-3.8-10.7c0-4.8,1.3-8.6,4-11.2c2.6-2.7,6-4,10.1-4
				c4.1,0,7.4,1.2,9.9,3.5c2.5,2.3,3.8,5.9,3.8,10.7s-1.3,8.6-4,11.2C614,767.9,610.6,769.2,606.5,769.2z M606.9,740.3
				c-2.9,0-5.4,1.3-7.3,3.9c-1.9,2.6-2.9,6.2-2.9,10.9c0,4.6,0.9,8.1,2.7,10.3c1.8,2.2,4.1,3.4,7.1,3.4c2.9,0,5.4-1.3,7.3-3.9
				c1.9-2.6,2.9-6.2,2.9-10.9c0-4.6-0.9-8.1-2.7-10.3C612.2,741.4,609.8,740.3,606.9,740.3z"/>
			<path class="st3" d="M651.9,769c-1.6,0-2.8-0.3-3.6-1c-0.8-0.7-1.3-1.4-1.3-2.1l-0.1-1v-18.2c0-3-0.8-5-2.4-5.8
				c-0.8-0.4-1.8-0.6-3-0.6c-2.5,0-4.7,1-6.7,2.9c-2,1.9-3,3.7-3,5.2V769h-4.1v-28.9h4.1v6.6c0.7-1.7,1.9-3.2,3.6-4.7
				c1.8-1.4,3.7-2.2,5.8-2.2c2.1,0,3.8,0.2,5.2,0.6c1.3,0.4,2.3,1,2.9,1.7c1,1.2,1.4,2.7,1.4,4.6v18.1c0,1.1,0.2,2,0.7,2.6
				c0.4,0.6,0.9,0.9,1.4,1l0.6,0.1h1.8v0.5H651.9z"/>
			<path class="st3" d="M686.4,769c-1.6,0-2.8-0.3-3.6-1c-0.8-0.7-1.3-1.4-1.3-2.1l-0.1-1v-18.2c0-3-0.8-5-2.4-5.8
				c-0.8-0.4-1.8-0.6-3-0.6c-2.4,0-4.5,1-6.5,2.9c-1.9,1.9-2.9,3.7-2.9,5.2V769h-4.1v-43.3h4.1v21c0.6-1.7,1.8-3.2,3.5-4.7
				c1.7-1.4,3.7-2.2,5.8-2.2c3.7,0,6.2,0.6,7.5,1.9c1.3,1.3,1.9,3,1.9,5v18.1c0,1.1,0.2,2,0.7,2.6c0.4,0.6,0.9,0.9,1.3,1l0.7,0.1
				h1.8v0.5H686.4z"/>
			<path class="st3" d="M700.9,754.9c0,4.8,0.8,8.3,2.5,10.5c1.7,2.2,3.9,3.4,6.6,3.4c3.9,0,7.3-0.6,10.3-1.7l0.2,0.4
				c-3.1,1.2-6.6,1.8-10.4,1.8s-7-1.2-9.5-3.5c-2.4-2.3-3.6-5.9-3.6-10.7c0-4.8,1.3-8.6,3.8-11.2c2.5-2.7,5.8-4,9.7-4
				c3.2,0,5.8,0.9,8,2.8s3.2,4.7,3.2,8.4c0,0.2,0,0.4,0,0.6h-20.7C700.9,752.7,700.9,753.8,700.9,754.9z M715.6,743
				c-1.4-1.8-3.2-2.7-5.4-2.7s-4.2,1-5.9,2.9c-1.7,1.9-2.8,4.6-3.3,8h16.7C717.7,747.5,717,744.7,715.6,743z"/>
			<path class="st3" d="M733.7,762.3c0,3,0.8,5,2.4,5.8c0.8,0.4,1.8,0.6,3,0.6c2.4,0,4.6-0.9,6.5-2.8c1.9-1.9,2.9-3.6,3.1-5.2v-20.8
				h4.1v24.8c0,1.1,0.2,2,0.7,2.6c0.4,0.6,0.9,0.9,1.4,1l0.6,0.1h1.8v0.5h-3.5c-1.6,0-2.8-0.3-3.6-1c-0.8-0.7-1.3-1.4-1.3-2.1
				l-0.1-1v-2.5c-0.7,1.7-1.9,3.2-3.7,4.7s-3.7,2.2-5.8,2.2c-2.1,0-3.8-0.2-5.2-0.6s-2.3-1-2.9-1.7c-1-1.2-1.5-2.7-1.5-4.6v-22.2
				h4.1V762.3z"/>
			<path class="st3" d="M775,742.6v-1.2c-1.7,0.7-3.3,2.1-4.7,4.2c-1.4,2.1-2.2,4.1-2.3,5.9V769h-4.1v-28.9h4.1v9.2
				c0.6-2.2,1.8-4.3,3.5-6.3c1.7-2,3.7-3,5.9-3.1h0.2c0.8,0,1.4,0.3,1.9,0.8s0.8,1.2,0.8,1.9c0,0.8-0.3,1.4-0.8,1.9
				c-0.5,0.5-1.2,0.8-1.9,0.8c-0.8,0-1.4-0.3-1.9-0.8C775.2,744,775,743.3,775,742.6z"/>
		</g>
	</g>
	<g>
		<path class="st2" d="M363.7,440.8v-1h18v1h-5v68.9h5v1h-18v-1h4.7v-68.9H363.7z"/>
		<path class="st2" d="M407.6,510.8h-1.3l8.8-71h3.3l21.3,65.6l21.2-65.6h3.3l8.8,71h-8.4l-7-56.8l-18.3,56.8h-6.4l-18.5-56.1
			L407.6,510.8z"/>
		<path class="st2" d="M498.9,510.8h-1.3l8.8-71h3.4l21.3,65.6l21.2-65.6h3.4l8.8,71H556l-7-56.8l-18.3,56.8h-6.4l-18.5-56.1
			L498.9,510.8z"/>
		<path class="st2" d="M585.4,477c0-12.3,3-21.6,9-28c6-6.4,13.7-9.6,23.1-9.6c9.4,0,16.9,2.8,22.4,8.3c5.6,5.6,8.4,14.4,8.4,26.6
			s-3,21.4-8.9,27.6c-5.9,6.2-13.9,9.3-23.8,9.3c-8.6,0-15.6-2.5-21.1-7.4c-2.8-2.6-5-6.1-6.6-10.7
			C586.2,488.5,585.4,483.2,585.4,477z M617.1,440.4c-6.8,0-12.4,3-16.8,9.1c-4.3,6.1-6.5,15-6.5,26.8c0,11.8,2.1,20.3,6.2,25.7
			c4.1,5.4,9.6,8.1,16.5,8.1c6.9,0,12.5-3.1,16.8-9.2s6.5-15,6.5-26.7c0-11.7-2.1-20.2-6.2-25.7
			C629.4,443.2,623.9,440.4,617.1,440.4z"/>
	</g>
</g>
<g>
	<path d="M141,1340.7c14.4-1,27.1-1.5,38.1-1.5c30.9,0,46.3,10.9,46.3,32.7c0,10.1-2.6,18.9-7.8,26.5c-2.7,4.1-7,7.4-12.7,9.8
		c-5.7,2.4-12.6,3.6-20.7,3.6h-27.6v58H141V1340.7z M179.3,1341c-7.2,0-14.8,0.4-22.8,1.3v67.5h27.6c17.5-0.7,26.3-13.3,26.3-37.7
		c0-9.9-2.6-17.6-7.8-23C197.4,1343.8,189.6,1341,179.3,1341z"/>
	<path d="M238.3,1469.8H236l55.8-130.6l2.1-0.9l47,131.5H325l-14.6-41.1H256L238.3,1469.8z M286,1359.3l-29.3,67.5h53.2L286,1359.3z
		"/>
	<path d="M469.2,1339.2h2.4v74.6c0,19.5-3.8,33.9-11.6,43c-7.7,9.1-17.8,13.7-30.2,13.7c-7.8,0-14.5-0.7-20-2.1
		c-5.5-1.4-10.6-4.1-15.5-7.9c-10-7.7-14.9-23.3-14.9-46.6v-74.6H395v74.4c0,22.6,3.4,37.7,10.3,45.3c3.5,3.7,7.1,6.3,10.9,7.6
		c3.8,1.4,8.4,2.1,13.7,2.1c11.9,0,21.5-4.4,28.6-13.2c7.1-8.8,10.7-22.7,10.7-41.9V1339.2z"/>
	<path d="M585.8,1469.8h-70.9v-130.6h15.5v128.7h55.4V1469.8z"/>
	<path d="M625.9,1469.8h-2.4l16.2-130.6h6.2l39.2,120.7l39-120.7h6.2l16.2,130.6H731l-12.9-104.5l-33.8,104.5h-11.7l-34.2-103.2
		L625.9,1469.8z"/>
	<path d="M866.8,1339.2v1.9H808v56h54.5v1.9H808v69h62.9v1.9h-78.4v-130.6H866.8z"/>
</g>
<g>
	<path d="M455.4,1701.6h150.9v16.8h8.5v-16.8h9.6v16.7h5v-16.7v-9.7h-1.2H455.4c-2.5-17.8-17.7-31.6-36.1-31.6
		c-20.2,0-36.7,16.4-36.7,36.6c0,20.2,16.4,36.6,36.7,36.6C437.8,1733.6,453.1,1719.6,455.4,1701.6z M436.5,1711.5
		c-4,3.9-10,5.8-17.9,5.8s-13.6-1.8-17.2-5.4c-3.6-3.6-5.4-8.5-5.4-14.6c0-6.1,2.1-11.1,6.2-15c4.2-3.9,10.2-5.8,18.2-5.8
		c4,0,7.5,0.5,10.4,1.6c3,1,5.3,2.5,6.9,4.3c3.2,3.6,4.8,8.1,4.8,13.7C442.5,1702.5,440.5,1707.7,436.5,1711.5z"/>
</g>
<g>
	<rect x="222.2" y="1822.9" style="fill:none;" width="567.6" height="82.7"/>
	
		<text transform="matrix(1 0 0 1 222.1604 1866.239)" class="st4" style="font-family:'Italiana-Regular'; font-size:57.8671px; letter-spacing:3;">Les clés du bonheur</text>
</g>
<g>
	<path d="M363.7,1538.1v-1h18v1h-5v68.9h5v1h-18v-1h4.7v-68.9H363.7z"/>
	<path d="M407.6,1608h-1.3l8.8-71h3.3l21.3,65.6l21.2-65.6h3.3l8.8,71h-8.4l-7-56.8l-18.3,56.8h-6.4l-18.5-56.1L407.6,1608z"/>
	<path d="M498.9,1608h-1.3l8.8-71h3.4l21.3,65.6l21.2-65.6h3.4l8.8,71H556l-7-56.8l-18.3,56.8h-6.4l-18.5-56.1L498.9,1608z"/>
	<path d="M585.4,1574.2c0-12.3,3-21.6,9-28c6-6.4,13.7-9.6,23.1-9.6c9.4,0,16.9,2.8,22.4,8.3c5.6,5.6,8.4,14.4,8.4,26.6
		c0,12.2-3,21.4-8.9,27.6c-5.9,6.2-13.9,9.3-23.8,9.3c-8.6,0-15.6-2.5-21.1-7.4c-2.8-2.6-5-6.1-6.6-10.7
		C586.2,1585.8,585.4,1580.4,585.4,1574.2z M617.1,1537.7c-6.8,0-12.4,3-16.8,9.1c-4.3,6.1-6.5,15-6.5,26.8
		c0,11.8,2.1,20.3,6.2,25.7c4.1,5.4,9.6,8.1,16.5,8.1c6.9,0,12.5-3.1,16.8-9.2c4.4-6.1,6.5-15,6.5-26.7c0-11.7-2.1-20.2-6.2-25.7
		C629.4,1540.4,623.9,1537.7,617.1,1537.7z"/>
</g>
<g>
	<path class="st0" d="M141,2452.6c14.4-1,27.1-1.5,38.1-1.5c30.9,0,46.3,10.9,46.3,32.7c0,10.1-2.6,18.9-7.8,26.5
		c-2.7,4.1-7,7.4-12.7,9.8c-5.7,2.4-12.6,3.6-20.7,3.6h-27.6v58H141V2452.6z M179.3,2453c-7.2,0-14.8,0.4-22.8,1.3v67.5h27.6
		c17.5-0.7,26.3-13.3,26.3-37.7c0-9.9-2.6-17.6-7.8-23C197.4,2455.7,189.6,2453,179.3,2453z"/>
	<path class="st0" d="M238.3,2581.7H236l55.8-130.6l2.1-0.9l47,131.5H325l-14.6-41.1H256L238.3,2581.7z M286,2471.3l-29.3,67.5h53.2
		L286,2471.3z"/>
	<path class="st0" d="M469.2,2451.1h2.4v74.6c0,19.5-3.8,33.9-11.6,43c-7.7,9.1-17.8,13.7-30.2,13.7c-7.8,0-14.5-0.7-20-2.1
		c-5.5-1.4-10.6-4.1-15.5-7.9c-10-7.7-14.9-23.3-14.9-46.6v-74.6H395v74.4c0,22.6,3.4,37.7,10.3,45.3c3.5,3.7,7.1,6.3,10.9,7.6
		c3.8,1.4,8.4,2.1,13.7,2.1c11.9,0,21.5-4.4,28.6-13.2c7.1-8.8,10.7-22.7,10.7-41.9V2451.1z"/>
	<path class="st0" d="M585.8,2581.7h-70.9v-130.6h15.5v128.7h55.4V2581.7z"/>
	<path class="st0" d="M625.9,2581.7h-2.4l16.2-130.6h6.2l39.2,120.7l39-120.7h6.2l16.2,130.6H731l-12.9-104.5l-33.8,104.5h-11.7
		l-34.2-103.2L625.9,2581.7z"/>
	<path class="st0" d="M866.8,2451.1v1.9H808v56h54.5v1.9H808v69h62.9v1.9h-78.4v-130.6H866.8z"/>
</g>
<g>
	<path class="st0" d="M455.4,2813.5h150.9v16.8h8.5v-16.8h9.6v16.7h5v-16.7v-9.7h-1.2H455.4c-2.5-17.8-17.7-31.6-36.1-31.6
		c-20.2,0-36.7,16.4-36.7,36.6c0,20.2,16.4,36.6,36.7,36.6C437.8,2845.5,453.1,2831.6,455.4,2813.5z M436.5,2823.5
		c-4,3.9-10,5.8-17.9,5.8s-13.6-1.8-17.2-5.4c-3.6-3.6-5.4-8.5-5.4-14.6c0-6.1,2.1-11.1,6.2-15c4.2-3.9,10.2-5.8,18.2-5.8
		c4,0,7.5,0.5,10.4,1.6c3,1,5.3,2.5,6.9,4.3c3.2,3.6,4.8,8.1,4.8,13.7C442.5,2814.5,440.5,2819.6,436.5,2823.5z"/>
</g>
<g>
	<rect x="222.2" y="2934.8" style="fill:none;" width="567.6" height="82.7"/>
	
		<text transform="matrix(1 0 0 1 222.1604 2978.1899)" class="st5" style="font-family:'Italiana-Regular'; font-size:57.8671px; letter-spacing:3;">Les clés du bonheur</text>
</g>
<g>
	<path class="st0" d="M363.7,2650v-1h18v1h-5v68.9h5v1h-18v-1h4.7V2650H363.7z"/>
	<path class="st0" d="M407.6,2720h-1.3l8.8-71h3.3l21.3,65.6l21.2-65.6h3.3l8.8,71h-8.4l-7-56.8l-18.3,56.8h-6.4l-18.5-56.1
		L407.6,2720z"/>
	<path class="st0" d="M498.9,2720h-1.3l8.8-71h3.4l21.3,65.6l21.2-65.6h3.4l8.8,71H556l-7-56.8l-18.3,56.8h-6.4l-18.5-56.1
		L498.9,2720z"/>
	<path class="st0" d="M585.4,2686.2c0-12.3,3-21.6,9-28c6-6.4,13.7-9.6,23.1-9.6c9.4,0,16.9,2.8,22.4,8.3c5.6,5.6,8.4,14.4,8.4,26.6
		c0,12.2-3,21.4-8.9,27.6c-5.9,6.2-13.9,9.3-23.8,9.3c-8.6,0-15.6-2.5-21.1-7.4c-2.8-2.6-5-6.1-6.6-10.7
		C586.2,2697.7,585.4,2692.4,585.4,2686.2z M617.1,2649.6c-6.8,0-12.4,3-16.8,9.1c-4.3,6.1-6.5,15-6.5,26.8
		c0,11.8,2.1,20.3,6.2,25.7c4.1,5.4,9.6,8.1,16.5,8.1c6.9,0,12.5-3.1,16.8-9.2s6.5-15,6.5-26.7c0-11.7-2.1-20.2-6.2-25.7
		C629.4,2652.3,623.9,2649.6,617.1,2649.6z"/>
</g>
<rect x="-1129.4" y="-9" class="st1" width="1016" height="1022"/>
<g>
	<path class="st2" d="M-984.4,319.5c14.4-1,27.1-1.5,38.1-1.5c30.9,0,46.3,10.9,46.3,32.7c0,10.1-2.6,18.9-7.8,26.5
		c-2.7,4.1-7,7.4-12.7,9.8c-5.7,2.4-12.6,3.6-20.7,3.6h-27.6v58h-15.5V319.5z M-946.1,319.8c-7.2,0-14.8,0.4-22.8,1.3v67.5h27.6
		c17.5-0.7,26.3-13.3,26.3-37.7c0-9.9-2.6-17.6-7.8-23C-928,322.5-935.8,319.8-946.1,319.8z"/>
	<path class="st2" d="M-887.1,448.6h-2.3l55.8-130.6l2.1-0.9l47,131.5h-15.9l-14.6-41.1h-54.5L-887.1,448.6z M-839.4,338.1
		l-29.3,67.5h53.2L-839.4,338.1z"/>
	<path class="st2" d="M-656.2,318h2.4v74.6c0,19.5-3.8,33.9-11.6,43c-7.7,9.1-17.8,13.7-30.2,13.7c-7.8,0-14.5-0.7-20-2.1
		c-5.5-1.4-10.6-4.1-15.5-7.9c-10-7.7-14.9-23.3-14.9-46.6V318h15.5v74.4c0,22.6,3.4,37.7,10.3,45.3c3.5,3.7,7.1,6.3,10.9,7.6
		c3.8,1.4,8.4,2.1,13.7,2.1c11.9,0,21.5-4.4,28.6-13.2c7.1-8.8,10.7-22.7,10.7-41.9V318z"/>
	<path class="st2" d="M-539.6,448.6h-70.9V318h15.5v128.7h55.4V448.6z"/>
	<path class="st2" d="M-499.5,448.6h-2.4l16.2-130.6h6.2l39.2,120.7l39-120.7h6.2l16.2,130.6h-15.5l-12.9-104.5l-33.8,104.5h-11.7
		L-487,345.4L-499.5,448.6z"/>
	<path class="st2" d="M-258.6,318v1.9h-58.8v56h54.5v1.9h-54.5v69h62.9v1.9h-78.4V318H-258.6z"/>
</g>
<g>
	<path class="st2" d="M-670,680.4h150.9v16.8h8.5v-16.8h9.6V697h5v-16.7v-9.7h-1.2H-670c-2.5-17.8-17.7-31.6-36.1-31.6
		c-20.2,0-36.7,16.4-36.7,36.6c0,20.2,16.4,36.6,36.7,36.6C-687.6,712.3-672.3,698.4-670,680.4z M-688.9,690.3
		c-4,3.9-10,5.8-17.9,5.8s-13.6-1.8-17.2-5.4c-3.6-3.6-5.4-8.5-5.4-14.6c0-6.1,2.1-11.1,6.2-15c4.2-3.9,10.2-5.8,18.2-5.8
		c4,0,7.5,0.5,10.4,1.6c3,1,5.3,2.5,6.9,4.3c3.2,3.6,4.8,8.1,4.8,13.7C-682.9,681.3-684.9,686.4-688.9,690.3z"/>
</g>
<g>
	<path class="st2" d="M-761.7,516.8v-1h18v1h-5v68.9h5v1h-18v-1h4.7v-68.9H-761.7z"/>
	<path class="st2" d="M-717.8,586.8h-1.3l8.8-71h3.3l21.3,65.6l21.2-65.6h3.3l8.8,71h-8.4l-7-56.8l-18.3,56.8h-6.4l-18.5-56.1
		L-717.8,586.8z"/>
	<path class="st2" d="M-626.5,586.8h-1.3l8.8-71h3.4l21.3,65.6l21.2-65.6h3.4l8.8,71h-8.4l-7-56.8l-18.3,56.8h-6.4l-18.5-56.1
		L-626.5,586.8z"/>
	<path class="st2" d="M-540,553c0-12.3,3-21.6,9-28c6-6.4,13.7-9.6,23.1-9.6c9.4,0,16.9,2.8,22.4,8.3c5.6,5.6,8.4,14.4,8.4,26.6
		c0,12.2-3,21.4-8.9,27.6c-5.9,6.2-13.9,9.3-23.8,9.3c-8.6,0-15.6-2.5-21.1-7.4c-2.8-2.6-5-6.1-6.6-10.7
		C-539.2,564.5-540,559.2-540,553z M-508.3,516.4c-6.8,0-12.4,3-16.8,9.1c-4.3,6.1-6.5,15-6.5,26.8c0,11.8,2.1,20.3,6.2,25.7
		c4.1,5.4,9.6,8.1,16.5,8.1c6.9,0,12.5-3.1,16.8-9.2c4.4-6.1,6.5-15,6.5-26.7c0-11.7-2.1-20.2-6.2-25.7
		C-496,519.2-501.5,516.4-508.3,516.4z"/>
</g>
<g>
	<g>
		<path d="M-984.4,1416.7c14.4-1,27.1-1.5,38.1-1.5c30.9,0,46.3,10.9,46.3,32.7c0,10.1-2.6,18.9-7.8,26.5c-2.7,4.1-7,7.4-12.7,9.8
			c-5.7,2.4-12.6,3.6-20.7,3.6h-27.6v58h-15.5V1416.7z M-946.1,1417c-7.2,0-14.8,0.4-22.8,1.3v67.5h27.6
			c17.5-0.7,26.3-13.3,26.3-37.7c0-9.9-2.6-17.6-7.8-23C-928,1419.8-935.8,1417-946.1,1417z"/>
		<path d="M-887.1,1545.8h-2.3l55.8-130.6l2.1-0.9l47,131.5h-15.9l-14.6-41.1h-54.5L-887.1,1545.8z M-839.4,1435.3l-29.3,67.5h53.2
			L-839.4,1435.3z"/>
		<path d="M-656.2,1415.2h2.4v74.6c0,19.5-3.8,33.9-11.6,43c-7.7,9.1-17.8,13.7-30.2,13.7c-7.8,0-14.5-0.7-20-2.1
			c-5.5-1.4-10.6-4.1-15.5-7.9c-10-7.7-14.9-23.3-14.9-46.6v-74.6h15.5v74.4c0,22.6,3.4,37.7,10.3,45.3c3.5,3.7,7.1,6.3,10.9,7.6
			c3.8,1.4,8.4,2.1,13.7,2.1c11.9,0,21.5-4.4,28.6-13.2c7.1-8.8,10.7-22.7,10.7-41.9V1415.2z"/>
		<path d="M-539.6,1545.8h-70.9v-130.6h15.5v128.7h55.4V1545.8z"/>
		<path d="M-499.5,1545.8h-2.4l16.2-130.6h6.2l39.2,120.7l39-120.7h6.2l16.2,130.6h-15.5l-12.9-104.5l-33.8,104.5h-11.7l-34.2-103.2
			L-499.5,1545.8z"/>
		<path d="M-258.6,1415.2v1.9h-58.8v56h54.5v1.9h-54.5v69h62.9v1.9h-78.4v-130.6H-258.6z"/>
	</g>
	<g>
		<path d="M-670,1777.6h150.9v16.8h8.5v-16.8h9.6v16.7h5v-16.7v-9.7h-1.2H-670c-2.5-17.8-17.7-31.6-36.1-31.6
			c-20.2,0-36.7,16.4-36.7,36.6c0,20.2,16.4,36.6,36.7,36.6C-687.6,1809.6-672.3,1795.6-670,1777.6z M-688.9,1787.5
			c-4,3.9-10,5.8-17.9,5.8s-13.6-1.8-17.2-5.4c-3.6-3.6-5.4-8.5-5.4-14.6c0-6.1,2.1-11.1,6.2-15c4.2-3.9,10.2-5.8,18.2-5.8
			c4,0,7.5,0.5,10.4,1.6c3,1,5.3,2.5,6.9,4.3c3.2,3.6,4.8,8.1,4.8,13.7C-682.9,1778.5-684.9,1783.7-688.9,1787.5z"/>
	</g>
	<g>
		<path d="M-761.7,1614.1v-1h18v1h-5v68.9h5v1h-18v-1h4.7v-68.9H-761.7z"/>
		<path d="M-717.8,1684h-1.3l8.8-71h3.3l21.3,65.6l21.2-65.6h3.3l8.8,71h-8.4l-7-56.8l-18.3,56.8h-6.4L-711,1628L-717.8,1684z"/>
		<path d="M-626.5,1684h-1.3l8.8-71h3.4l21.3,65.6l21.2-65.6h3.4l8.8,71h-8.4l-7-56.8l-18.3,56.8h-6.4l-18.5-56.1L-626.5,1684z"/>
		<path d="M-540,1650.2c0-12.3,3-21.6,9-28c6-6.4,13.7-9.6,23.1-9.6c9.4,0,16.9,2.8,22.4,8.3c5.6,5.6,8.4,14.4,8.4,26.6
			s-3,21.4-8.9,27.6c-5.9,6.2-13.9,9.3-23.8,9.3c-8.6,0-15.6-2.5-21.1-7.4c-2.8-2.6-5-6.1-6.6-10.7
			C-539.2,1661.8-540,1656.4-540,1650.2z M-508.3,1613.7c-6.8,0-12.4,3-16.8,9.1c-4.3,6.1-6.5,15-6.5,26.8c0,11.8,2.1,20.3,6.2,25.7
			c4.1,5.4,9.6,8.1,16.5,8.1c6.9,0,12.5-3.1,16.8-9.2c4.4-6.1,6.5-15,6.5-26.7c0-11.7-2.1-20.2-6.2-25.7
			C-496,1616.4-501.5,1613.7-508.3,1613.7z"/>
	</g>
</g>
<g>
	<g>
		<path class="st0" d="M-984.4,2528.6c14.4-1,27.1-1.5,38.1-1.5c30.9,0,46.3,10.9,46.3,32.7c0,10.1-2.6,18.9-7.8,26.5
			c-2.7,4.1-7,7.4-12.7,9.8c-5.7,2.4-12.6,3.6-20.7,3.6h-27.6v58h-15.5V2528.6z M-946.1,2529c-7.2,0-14.8,0.4-22.8,1.3v67.5h27.6
			c17.5-0.7,26.3-13.3,26.3-37.7c0-9.9-2.6-17.6-7.8-23C-928,2531.7-935.8,2529-946.1,2529z"/>
		<path class="st0" d="M-887.1,2657.7h-2.3l55.8-130.6l2.1-0.9l47,131.5h-15.9l-14.6-41.1h-54.5L-887.1,2657.7z M-839.4,2547.3
			l-29.3,67.5h53.2L-839.4,2547.3z"/>
		<path class="st0" d="M-656.2,2527.1h2.4v74.6c0,19.5-3.8,33.9-11.6,43c-7.7,9.1-17.8,13.7-30.2,13.7c-7.8,0-14.5-0.7-20-2.1
			c-5.5-1.4-10.6-4.1-15.5-7.9c-10-7.7-14.9-23.3-14.9-46.6v-74.6h15.5v74.4c0,22.6,3.4,37.7,10.3,45.3c3.5,3.7,7.1,6.3,10.9,7.6
			c3.8,1.4,8.4,2.1,13.7,2.1c11.9,0,21.5-4.4,28.6-13.2c7.1-8.8,10.7-22.7,10.7-41.9V2527.1z"/>
		<path class="st0" d="M-539.6,2657.7h-70.9v-130.6h15.5v128.7h55.4V2657.7z"/>
		<path class="st0" d="M-499.5,2657.7h-2.4l16.2-130.6h6.2l39.2,120.7l39-120.7h6.2l16.2,130.6h-15.5l-12.9-104.5l-33.8,104.5h-11.7
			l-34.2-103.2L-499.5,2657.7z"/>
		<path class="st0" d="M-258.6,2527.1v1.9h-58.8v56h54.5v1.9h-54.5v69h62.9v1.9h-78.4v-130.6H-258.6z"/>
	</g>
	<g>
		<path class="st0" d="M-670,2889.5h150.9v16.8h8.5v-16.8h9.6v16.7h5v-16.7v-9.7h-1.2H-670c-2.5-17.8-17.7-31.6-36.1-31.6
			c-20.2,0-36.7,16.4-36.7,36.6c0,20.2,16.4,36.6,36.7,36.6C-687.6,2921.5-672.3,2907.6-670,2889.5z M-688.9,2899.5
			c-4,3.9-10,5.8-17.9,5.8s-13.6-1.8-17.2-5.4c-3.6-3.6-5.4-8.5-5.4-14.6c0-6.1,2.1-11.1,6.2-15c4.2-3.9,10.2-5.8,18.2-5.8
			c4,0,7.5,0.5,10.4,1.6c3,1,5.3,2.5,6.9,4.3c3.2,3.6,4.8,8.1,4.8,13.7C-682.9,2890.5-684.9,2895.6-688.9,2899.5z"/>
	</g>
	<g>
		<path class="st0" d="M-761.7,2726v-1h18v1h-5v68.9h5v1h-18v-1h4.7V2726H-761.7z"/>
		<path class="st0" d="M-717.8,2796h-1.3l8.8-71h3.3l21.3,65.6l21.2-65.6h3.3l8.8,71h-8.4l-7-56.8l-18.3,56.8h-6.4l-18.5-56.1
			L-717.8,2796z"/>
		<path class="st0" d="M-626.5,2796h-1.3l8.8-71h3.4l21.3,65.6l21.2-65.6h3.4l8.8,71h-8.4l-7-56.8l-18.3,56.8h-6.4l-18.5-56.1
			L-626.5,2796z"/>
		<path class="st0" d="M-540,2762.2c0-12.3,3-21.6,9-28c6-6.4,13.7-9.6,23.1-9.6c9.4,0,16.9,2.8,22.4,8.3c5.6,5.6,8.4,14.4,8.4,26.6
			c0,12.2-3,21.4-8.9,27.6c-5.9,6.2-13.9,9.3-23.8,9.3c-8.6,0-15.6-2.5-21.1-7.4c-2.8-2.6-5-6.1-6.6-10.7
			C-539.2,2773.7-540,2768.4-540,2762.2z M-508.3,2725.6c-6.8,0-12.4,3-16.8,9.1c-4.3,6.1-6.5,15-6.5,26.8c0,11.8,2.1,20.3,6.2,25.7
			c4.1,5.4,9.6,8.1,16.5,8.1c6.9,0,12.5-3.1,16.8-9.2c4.4-6.1,6.5-15,6.5-26.7c0-11.7-2.1-20.2-6.2-25.7
			C-496,2728.3-501.5,2725.6-508.3,2725.6z"/>
	</g>
</g>
<g>
	<g>
		<path class="st2" d="M1249.3-200c14.4-1,27.1-1.5,38.1-1.5c30.9,0,46.3,10.9,46.3,32.7c0,10.1-2.6,18.9-7.8,26.5
			c-2.7,4.1-7,7.4-12.7,9.8c-5.7,2.4-12.6,3.6-20.7,3.6h-27.6v58h-15.5V-200z M1287.5-199.6c-7.2,0-14.8,0.4-22.8,1.3v67.5h27.6
			c17.5-0.7,26.3-13.3,26.3-37.7c0-9.9-2.6-17.6-7.8-23C1305.6-196.9,1297.8-199.6,1287.5-199.6z"/>
		<path class="st2" d="M1346.5-70.9h-2.3l55.8-130.6l2.1-0.9l47,131.5h-15.9l-14.6-41.1h-54.5L1346.5-70.9z M1394.3-181.3
			l-29.3,67.5h53.2L1394.3-181.3z"/>
		<path class="st2" d="M1577.5-201.5h2.4v74.6c0,19.5-3.8,33.9-11.6,43c-7.7,9.1-17.8,13.7-30.2,13.7c-7.8,0-14.5-0.7-20-2.1
			c-5.5-1.4-10.6-4.1-15.5-7.9c-10-7.7-14.9-23.3-14.9-46.6v-74.6h15.5v74.4c0,22.6,3.4,37.7,10.3,45.3c3.5,3.7,7.1,6.3,10.9,7.6
			c3.8,1.4,8.4,2.1,13.7,2.1c11.9,0,21.5-4.4,28.6-13.2c7.1-8.8,10.7-22.7,10.7-41.9V-201.5z"/>
		<path class="st2" d="M1694.1-70.9h-70.9v-130.6h15.5v128.7h55.4V-70.9z"/>
		<path class="st2" d="M1734.2-70.9h-2.4l16.2-130.6h6.2l39.2,120.7l39-120.7h6.2l16.2,130.6h-15.5l-12.9-104.5l-33.8,104.5h-11.7
			L1746.7-174L1734.2-70.9z"/>
		<path class="st2" d="M1975-201.5v1.9h-58.8v56h54.5v1.9h-54.5v69h62.9v1.9h-78.4v-130.6H1975z"/>
	</g>
	<g>
		<path class="st2" d="M1563.6,160.9h150.9v16.8h8.5v-16.8h9.6v16.7h5v-16.7v-9.7h-1.2h-172.8c-2.5-17.8-17.7-31.6-36.1-31.6
			c-20.2,0-36.7,16.4-36.7,36.6c0,20.2,16.4,36.6,36.7,36.6C1546.1,192.9,1561.3,178.9,1563.6,160.9z M1544.7,170.9
			c-4,3.9-10,5.8-17.9,5.8s-13.6-1.8-17.2-5.4c-3.6-3.6-5.4-8.5-5.4-14.6c0-6.1,2.1-11.1,6.2-15c4.2-3.9,10.2-5.8,18.2-5.8
			c4,0,7.5,0.5,10.4,1.6c3,1,5.3,2.5,6.9,4.3c3.2,3.6,4.8,8.1,4.8,13.7C1550.7,161.9,1548.7,167,1544.7,170.9z"/>
	</g>
	<g>
		<rect x="1330.4" y="282.2" style="fill:none;" width="567.6" height="82.7"/>
		
			<text transform="matrix(1 0 0 1 1330.3938 325.573)" class="st3" style="font-family:'Italiana-Regular'; font-size:57.8671px; letter-spacing:3;">Les clés du bonheur</text>
	</g>
	<g>
		<path class="st2" d="M1471.9-2.6v-1h18v1h-5v68.9h5v1h-18v-1h4.7V-2.6H1471.9z"/>
		<path class="st2" d="M1515.8,67.3h-1.3l8.8-71h3.3L1548,62l21.2-65.6h3.3l8.8,71h-8.4l-7-56.8l-18.3,56.8h-6.4l-18.5-56.1
			L1515.8,67.3z"/>
		<path class="st2" d="M1607.2,67.3h-1.3l8.8-71h3.4l21.3,65.6l21.2-65.6h3.4l8.8,71h-8.4l-7-56.8l-18.3,56.8h-6.4l-18.5-56.1
			L1607.2,67.3z"/>
		<path class="st2" d="M1693.6,33.6c0-12.3,3-21.6,9-28c6-6.4,13.7-9.6,23.1-9.6c9.4,0,16.9,2.8,22.4,8.3c5.6,5.6,8.4,14.4,8.4,26.6
			s-3,21.4-8.9,27.6c-5.9,6.2-13.9,9.3-23.8,9.3c-8.6,0-15.6-2.5-21.1-7.4c-2.8-2.6-5-6.1-6.6-10.7
			C1694.4,45.1,1693.6,39.7,1693.6,33.6z M1725.4-3c-6.8,0-12.4,3-16.8,9.1c-4.3,6.1-6.5,15-6.5,26.8c0,11.8,2.1,20.3,6.2,25.7
			c4.1,5.4,9.6,8.1,16.5,8.1c6.9,0,12.5-3.1,16.8-9.2c4.4-6.1,6.5-15,6.5-26.7c0-11.7-2.1-20.2-6.2-25.7
			C1737.7-0.3,1732.2-3,1725.4-3z"/>
	</g>
</g>
</svg>
